<?xml version="1.0" encoding="UTF-8" standalone="no"?>
<svg
   id="svg752"
   width="309.71075"
   height="145.23802"
   version="1.1"
   sodipodi:docname="output.svg"
   inkscape:version="1.2 (dc2aedaf03, 2022-05-15)"
   viewBox="0 0 319.86537 150"
   xmlns:inkscape="http://www.inkscape.org/namespaces/inkscape"
   xmlns:sodipodi="http://sodipodi.sourceforge.net/DTD/sodipodi-0.dtd"
   xmlns="http://www.w3.org/2000/svg"
   xmlns:svg="http://www.w3.org/2000/svg">
  <sodipodi:namedview
     id="namedview7565"
     pagecolor="#ffffff"
     bordercolor="#666666"
     borderopacity="1.0"
     inkscape:showpageshadow="2"
     inkscape:pageopacity="0.0"
     inkscape:pagecheckerboard="0"
     inkscape:deskcolor="#d1d1d1"
     showgrid="false"
     inkscape:zoom="4.0333333"
     inkscape:cx="124.58678"
     inkscape:cy="89.752066"
     inkscape:window-width="3840"
     inkscape:window-height="2089"
     inkscape:window-x="3832"
     inkscape:window-y="-8"
     inkscape:window-maximized="1"
     inkscape:current-layer="svg752" />
  <defs
     id="defs756">
    <clipPath
       id="clipEmfPath1"
       clipPathUnits="userSpaceOnUse">
      <path
         id="path1010"
         d="m 60.67,45.33 h -1 l 0.33,-1 1,0.34 -0.33,0.66 m -10.34,-3 -1,-1.66 3,1 -2,0.66 m 11.34,-3.66 1,-2 1,1.33 -2,0.67 M 42,36 38,34.67 39.33,32 42,36 M 61.67,29.67 59,26 l 3.67,0.67 -1,3 M 52,21.67 60,33 57.33,40 56.67,40.33 47,37.33 39,25.67 33.33,36 l 11,3.33 4.67,6.34 7.33,-2.34 -0.66,3.67 7,1.67 3,-5 L 61,42 68.33,39.67 64,33 67.33,25 52,21.67" />
    </clipPath>
    <clipPath
       id="clipEmfPath2"
       clipPathUnits="userSpaceOnUse">
      <path
         id="path1013"
         d="m 41.33,17.67 0.34,1.66 V 21 l 7.66,11 -2,0.67 1.67,2.33 2,-0.67 1.33,1.67 3,-1 -1,-1.67 L 56,32.67 54.33,30.33 52.33,31 45,20 H 44.67 L 43,18.67 l -1.67,-1" />
    </clipPath>
    <clipPath
       id="clipEmfPath1-1"
       clipPathUnits="userSpaceOnUse">
      <path
         id="path1010-0"
         d="m 60.67,45.33 h -1 l 0.33,-1 1,0.34 -0.33,0.66 m -10.34,-3 -1,-1.66 3,1 -2,0.66 m 11.34,-3.66 1,-2 1,1.33 -2,0.67 M 42,36 38,34.67 39.33,32 42,36 M 61.67,29.67 59,26 l 3.67,0.67 -1,3 M 52,21.67 60,33 57.33,40 56.67,40.33 47,37.33 39,25.67 33.33,36 l 11,3.33 4.67,6.34 7.33,-2.34 -0.66,3.67 7,1.67 3,-5 L 61,42 68.33,39.67 64,33 67.33,25 52,21.67" />
    </clipPath>
    <clipPath
       id="clipEmfPath2-9"
       clipPathUnits="userSpaceOnUse">
      <path
         id="path1013-4"
         d="m 41.33,17.67 0.34,1.66 V 21 l 7.66,11 -2,0.67 1.67,2.33 2,-0.67 1.33,1.67 3,-1 -1,-1.67 L 56,32.67 54.33,30.33 52.33,31 45,20 H 44.67 L 43,18.67 l -1.67,-1" />
    </clipPath>
    <style
       id="style5556"><![CDATA[
            .focus-background {
                fill: #60b3c2;
                paint-order: stroke markers fill;
                stroke: #5f5f0c;
                stroke-opacity: 1;
                stroke-width: 5;
            }

            .focus-name {
                font-size: 24px;
                font-family: "nocturne-serif";
                color: #806600;
            }

            .dice-text {
                font-size: 16px;
                color: #ffffff;
            }

            .svg-container {
                display: inline-block;
                position: relative;
                width: 100%;
                padding-bottom: 100%;
                vertical-align: middle;
                overflow: hidden;
            }

            .skill-name {
                font-size: 32px;
                font-family: "nocturne-serif";
            }

            .pip-checked {
                opacity: 1;
            }

            .pip-unchecked {
                opacity: 0;
            }

            .dice-color-1 {
                fill: #806600;
                fill-opacity: 1;
                fill-rule: nonzero;
                stroke: none;
                stroke-width: 0.577399
            }

            .dice-color-2 {
                fill: #4b5957;
                fill-opacity: 1;
                fill-rule: nonzero;
                stroke: none;
                stroke-width: 0.577399
            }
            ]]></style>
  </defs>
  <g
     id="skills"
     transform="translate(4.8571068,58.3125)">
    <g
       id="skill_1">
      <g
         id="skill-focus-1">
        <rect
           id="rect862"
           width="282.64001"
           height="40.91"
           x="2.48"
           y="-18.1"
           class="focus-background" />
        <g
           id="focus-1-pips"
           transform="matrix(1,0,0,-1,-24,157.14)">
          <g
             id="f1-pip4">
            <rect
               id="rect689"
               width="24.719999"
               height="24.719999"
               x="85.470001"
               y="151.71001"
               class="pip"
               transform="rotate(-45,97.83,164.07)"
               style="fill:#ffff00;stroke:#000000;stroke-opacity:1" />
            <path
               id="path691"
               d="M 97.83,147.3 114.6,164.07 97.83,180.85 81.06,164.07 97.83,147.3 m 0,-1.41 -18.19,18.18 18.19,18.19 18.19,-18.19 z"
               style="fill:#ffff00;stroke:#000000;stroke-opacity:1" />
          </g>
          <rect
             id="f1-pip4-checked"
             width="18.549999"
             height="18.549999"
             x="88.550003"
             y="154.8"
             class="pip-check"
             transform="rotate(-135,97.83,164.07)" />
          <g
             id="f1-pip3">
            <rect
               id="rect695"
               width="24.719999"
               height="24.719999"
               x="65.5"
               y="132.78999"
               class="pip"
               transform="rotate(-45,77.86,145.15)"
               style="fill:#ffff00;stroke:#000000;stroke-opacity:1" />
            <path
               id="path697"
               d="m 77.86,128.38 16.78,16.77 -16.78,16.77 -16.77,-16.77 16.77,-16.77 m 0,-1.42 -18.18,18.2 18.18,18.18 18.2,-18.19 z"
               style="fill:#ffff00;stroke:#000000;stroke-opacity:1" />
          </g>
          <rect
             id="f1-pip3-checked"
             width="18.549999"
             height="18.549999"
             x="68.589996"
             y="135.88"
             class="pip-check"
             transform="rotate(-135,77.86,145.15)" />
          <g
             id="f1-pip2">
            <rect
               id="rect701"
               width="24.719999"
               height="24.719999"
               x="45.619999"
               y="152.06"
               class="pip"
               transform="rotate(-45,57.98,164.42)"
               style="fill:#ffff00;stroke:#000000;stroke-opacity:1" />
            <path
               id="path703"
               d="M 57.98,147.65 74.76,164.42 57.98,181.2 41.21,164.42 57.98,147.65 m 0,-1.41 -18.18,18.18 18.18,18.2 18.2,-18.2 z"
               style="fill:#ffff00;stroke:#000000;stroke-opacity:1" />
          </g>
          <rect
             id="f1-pip2-checked"
             width="18.549999"
             height="18.549999"
             x="48.709999"
             y="155.14999"
             class="pip-check"
             transform="rotate(-135,57.98,164.42)" />
          <g
             id="f1-pip1">
            <rect
               id="rect707"
               width="24.719999"
               height="24.719999"
               x="25.68"
               y="132.78999"
               class="pip"
               transform="rotate(-45,38.04,145.15)"
               style="fill:#ffff00;stroke:#000000;stroke-opacity:1" />
            <path
               id="path709"
               d="m 38.04,128.38 16.77,16.77 -16.77,16.77 -16.78,-16.77 16.78,-16.77 m 0,-1.42 -18.19,18.2 18.19,18.18 18.18,-18.19 z"
               style="fill:#ffff00;stroke:#000000;stroke-opacity:1" />
          </g>
          <rect
             id="f1-pip1-checked"
             width="18.549999"
             height="18.549999"
             x="28.76"
             y="135.88"
             class="pip-check"
             transform="rotate(-135,38.04,145.15)" />
        </g>
        <g
           id="g687"
           transform="translate(144,16.7)">
          <text
             id="Acrobatics"
             x="-46.98"
             y="-12.86"
             class="focus-name"><tspan
               id="tspan681"
               x="-46.98"
               y="-12.86"
               style="font-size:24px">Acrobatics</tspan></text>
          <text
             id="3d10&gt;9"
             x="-47.810001"
             y="2.1500001"
             class="dice-text"><tspan
               id="tspan684"
               x="-47.810001"
               y="2.1500001"
               style="font-size:16px">3d (9+)</tspan></text>
        </g>
        <g
           id="focus-1-dice"
           transform="matrix(-1,0,0,1,559.83,-67.8)"
           data-dice-roll="3d (9+)">
          <path
             class="dice-color-1"
             id="path1019-7"
             d="m 288.27,96.17 h -0.2 L 256.7,81.93 c -0.2,0 -0.2,-0.2 -0.2,-0.2 l -3.46,-6.16 c -0.19,-0.19 -0.19,-0.38 0,-0.57 l 16.75,-30.6 c 0,-0.2 0.2,-0.2 0.38,-0.2 h 0.2 l 31.37,13.67 c 0,0 0,0.19 0.2,0.19 l 4.03,6.16 c 0.2,0.2 0.2,0.38 0,0.58 l -17.32,31.18 c -0.2,0.19 -0.2,0.19 -0.38,0.19 z" />
          <path
             style="fill:#000000;fill-opacity:1;fill-rule:nonzero;stroke:none;stroke-width:0.577399"
             id="path1021-4"
             d="m 270.17,44.97 31.18,13.67 3.85,5.96 -17.13,30.8 -30.98,-14.24 -3.28,-5.97 16.36,-30.22 m 0,-1.54 c -0.57,0 -0.96,0.2 -1.15,0.58 l -16.75,30.6 c -0.19,0.39 -0.19,0.96 0,1.35 l 3.47,6.16 0.58,0.58 31.37,14.24 h 0.58 c 0.38,0 0.77,-0.2 0.96,-0.58 l 17.51,-31.18 c 0.2,-0.38 0.2,-0.96 -0.19,-1.35 l -4.04,-6.16 c -0.2,-0.19 -0.39,-0.38 -0.58,-0.38 L 270.56,43.43 Z" />
          <path
             style="fill:#000000;fill-opacity:1;fill-rule:nonzero;stroke:none;stroke-width:0.577399"
             id="path1023-1"
             d="m 250.73,75.96 3.66,6.74 c 0,0.19 0.2,0.38 0.58,0.57 l 33.49,15.79 c 0.58,0.38 1.35,0.19 1.73,-0.39 l 19.05,-33.49 c 0.2,-0.38 0.2,-0.96 0,-1.35 l -4.42,-6.73 c 0,-0.2 -0.2,-0.39 -0.39,-0.39 l -33.68,-15.2 c -0.58,-0.39 -1.35,-0.2 -1.54,0.38 L 250.73,74.8 c -0.38,0.39 -0.38,0.77 0,1.16 m 36,-3.08 1.54,23.29 -31.38,-14.82 10.01,-11.93 19.83,3.46 m 19.82,-8.28 -17.13,30.03 -1.35,-22.14 12.51,-10.77 5.97,2.88 m -3.66,-5.77 2.31,3.66 -4.42,-2.12 -16.36,-9.82 18.47,8.28 m -32.33,-14.24 0.2,-0.2 3.84,1.54 24.64,15.2 -11.94,10.4 -20.01,-3.27 3.27,-23.67 m -1.73,3.27 -2.9,20.6 -9.8,11.93 -2.9,-5 z" />
        </g>
      </g>
      <g
         id="skill-focus-2"
         transform="translate(0.5,-10.41)">
        <rect
           id="rect862-7"
           width="282.64001"
           height="40.91"
           x="2.48"
           y="50.700001"
           class="focus-background" />
        <g
           id="focus-2-pips"
           transform="translate(-24,-83.63)">
          <g
             id="f2-pip4"
             style="fill:#ffff00;stroke:#000000;stroke-opacity:1">
            <rect
               id="rect724"
               width="24.719999"
               height="24.719999"
               x="85.470001"
               y="151.71001"
               class="pip"
               transform="rotate(-45,97.83,164.07)"
               style="fill:#ffff00;stroke:#000000;stroke-opacity:1" />
            <path
               id="path726"
               d="M 97.83,147.3 114.6,164.07 97.83,180.85 81.06,164.07 97.83,147.3 m 0,-1.41 -18.19,18.18 18.19,18.19 18.19,-18.19 z"
               style="fill:#ffff00;stroke:#000000;stroke-opacity:1" />
          </g>
          <rect
             id="f2-pip4-checked"
             width="18.549999"
             height="18.549999"
             x="88.550003"
             y="154.8"
             class="pip-check"
             transform="rotate(-135,97.83,164.07)" />
          <g
             id="f2-pip3"
             style="fill:#ffff00;stroke:#000000;stroke-opacity:1">
            <rect
               id="rect730"
               width="24.719999"
               height="24.719999"
               x="65.5"
               y="132.78999"
               class="pip"
               transform="rotate(-45,77.86,145.15)"
               style="fill:#ffff00;stroke:#000000;stroke-opacity:1" />
            <path
               id="path732"
               d="m 77.86,128.38 16.78,16.77 -16.78,16.77 -16.77,-16.77 16.77,-16.77 m 0,-1.42 -18.18,18.2 18.18,18.18 18.2,-18.19 z"
               style="fill:#ffff00;stroke:#000000;stroke-opacity:1" />
          </g>
          <rect
             id="f2-pip3-checked"
             width="18.549999"
             height="18.549999"
             x="68.589996"
             y="135.88"
             class="pip-check"
             transform="rotate(-135,77.86,145.15)" />
          <g
             id="f2-pip2"
             style="fill:#ffff00;stroke:#000000;stroke-opacity:1">
            <rect
               id="rect736"
               width="24.719999"
               height="24.719999"
               x="45.619999"
               y="152.06"
               class="pip"
               transform="rotate(-45,57.98,164.42)"
               style="fill:#ffff00;stroke:#000000;stroke-opacity:1" />
            <path
               id="path738"
               d="M 57.98,147.65 74.76,164.42 57.98,181.2 41.21,164.42 57.98,147.65 m 0,-1.41 -18.18,18.18 18.18,18.2 18.2,-18.2 z"
               style="fill:#ffff00;stroke:#000000;stroke-opacity:1" />
          </g>
          <rect
             id="f2-pip2-checked"
             width="18.549999"
             height="18.549999"
             x="48.709999"
             y="155.14999"
             class="pip-check"
             transform="rotate(-135,57.98,164.42)" />
          <g
             id="f2-pip1"
             style="fill:#ffff00;stroke:#000000;stroke-opacity:1">
            <rect
               id="rect742"
               width="24.719999"
               height="24.719999"
               x="25.68"
               y="132.78999"
               class="pip"
               transform="rotate(-45,38.04,145.15)"
               style="fill:#ffff00;stroke:#000000;stroke-opacity:1" />
            <path
               id="path744"
               d="m 38.04,128.38 16.77,16.77 -16.77,16.77 -16.78,-16.77 16.78,-16.77 m 0,-1.42 -18.19,18.2 18.19,18.18 18.18,-18.19 z"
               style="fill:#ffff00;stroke:#000000;stroke-opacity:1" />
          </g>
          <rect
             id="f2-pip1-checked"
             width="18.549999"
             height="18.549999"
             x="28.76"
             y="135.88"
             class="pip-check"
             transform="rotate(-135,38.04,145.15)" />
        </g>
        <g
           id="g722"
           transform="translate(0,54.38)">
          <text
             id="-text"
             x="96"
             y="16.76"
             class="skill-focus-name focus-name"><tspan
               id="tspan715"
               x="96"
               y="16.76"
               style="font-size:24px">Escape</tspan></text>
          <text
             id="-pool"
             x="96.190002"
             y="34"
             class="skill-focus-notation dice-text"><tspan
               id="tspan718"
               x="96.190002"
               y="34"
               style="font-size:16px">3d (9+)</tspan></text>
        </g>
        <g
           id="focus-2-dice"
           data-dice-roll="3d (9+)">
          <path
             class="dice-color-2"
             id="path1019"
             d="m 288.27,96.17 h -0.2 L 256.7,81.93 c -0.2,0 -0.2,-0.2 -0.2,-0.2 l -3.46,-6.16 c -0.19,-0.19 -0.19,-0.38 0,-0.57 l 16.75,-30.6 c 0,-0.2 0.2,-0.2 0.38,-0.2 h 0.2 l 31.37,13.67 c 0,0 0,0.19 0.2,0.19 l 4.03,6.16 c 0.2,0.2 0.2,0.38 0,0.58 l -17.32,31.18 c -0.2,0.19 -0.2,0.19 -0.38,0.19 z" />
          <path
             style="fill:#000000;fill-opacity:1;fill-rule:nonzero;stroke:none;stroke-width:0.577399"
             id="path1021"
             d="m 270.17,44.97 31.18,13.67 3.85,5.96 -17.13,30.8 -30.98,-14.24 -3.28,-5.97 16.36,-30.22 m 0,-1.54 c -0.57,0 -0.96,0.2 -1.15,0.58 l -16.75,30.6 c -0.19,0.39 -0.19,0.96 0,1.35 l 3.47,6.16 0.58,0.58 31.37,14.24 h 0.58 c 0.38,0 0.77,-0.2 0.96,-0.58 l 17.51,-31.18 c 0.2,-0.38 0.2,-0.96 -0.19,-1.35 l -4.04,-6.16 c -0.2,-0.19 -0.39,-0.38 -0.58,-0.38 L 270.56,43.43 Z" />
          <path
             style="fill:#000000;fill-opacity:1;fill-rule:nonzero;stroke:none;stroke-width:0.577399"
             id="path1023"
             d="m 250.73,75.96 3.66,6.74 c 0,0.19 0.2,0.38 0.58,0.57 l 33.49,15.79 c 0.58,0.38 1.35,0.19 1.73,-0.39 l 19.05,-33.49 c 0.2,-0.38 0.2,-0.96 0,-1.35 l -4.42,-6.73 c 0,-0.2 -0.2,-0.39 -0.39,-0.39 l -33.68,-15.2 c -0.58,-0.39 -1.35,-0.2 -1.54,0.38 L 250.73,74.8 c -0.38,0.39 -0.38,0.77 0,1.16 m 36,-3.08 1.54,23.29 -31.38,-14.82 10.01,-11.93 19.83,3.46 m 19.82,-8.28 -17.13,30.03 -1.35,-22.14 12.51,-10.77 5.97,2.88 m -3.66,-5.77 2.31,3.66 -4.42,-2.12 -16.36,-9.82 18.47,8.28 m -32.33,-14.24 0.2,-0.2 3.84,1.54 24.64,15.2 -11.94,10.4 -20.01,-3.27 3.27,-23.67 m -1.73,3.27 -2.9,20.6 -9.8,11.93 -2.9,-5 z" />
        </g>
      </g>
      <g
         id="skill-name-Agility"
         transform="translate(0,-34)">
        <text
           id="skill-name"
           class="skill-name"><tspan
             id="tspan676"
             x="0"
             y="0">Agility (STR)</tspan></text>
      </g>
    </g>
  </g>
</svg>
